# Blender 3.1.0
# www.blender.org
mtllib Bubbles.mtl
o Sphere
v 0.000000 1.003349 -0.500000
v 0.000000 0.689945 -0.866025
v 0.000000 0.261827 -1.000000
v -0.000000 0.000748 -0.969995
v 0.353553 1.003349 -0.353553
v 0.612373 0.689945 -0.612372
v 0.707107 0.261827 -0.707107
v 0.685890 0.000748 -0.685890
v 0.500000 1.003349 0.000000
v 0.866026 0.689945 0.000000
v 1.000000 0.261827 0.000000
v 0.969995 0.000748 0.000000
v 0.353553 1.003349 0.353554
v 0.612373 0.689945 0.612373
v 0.707107 0.261827 0.707107
v 0.685890 0.000748 0.685890
v -0.000000 1.003349 0.500000
v 0.000000 0.689945 0.866026
v 0.000000 0.261827 1.000000
v 0.000000 0.000748 0.969995
v -0.000000 1.118063 0.000000
v -0.353553 1.003349 0.353553
v -0.612372 0.689945 0.612373
v -0.707107 0.261827 0.707107
v -0.685890 0.000748 0.685890
v -0.500000 1.003349 0.000000
v -0.866025 0.689945 0.000000
v -1.000000 0.261827 0.000000
v -0.969995 0.000748 0.000000
v -0.353553 1.003349 -0.353553
v -0.612372 0.689945 -0.612372
v -0.707107 0.261827 -0.707107
v -0.685890 0.000748 -0.685890
vn -0.0000 -0.1142 -0.9935
vn -0.0000 0.0899 -0.9960
vn 0.7042 0.0899 -0.7042
vn 0.7025 -0.1142 -0.7025
vn -0.0000 0.5215 -0.8533
vn -0.0000 0.8690 -0.4949
vn 0.3499 0.8690 -0.3499
vn 0.6033 0.5215 -0.6033
vn -0.0000 1.0000 -0.0000
vn 0.8533 0.5215 -0.0000
vn 0.9960 0.0899 -0.0000
vn 0.4949 0.8690 -0.0000
vn 0.9935 -0.1142 -0.0000
vn 0.6033 0.5215 0.6033
vn 0.7042 0.0899 0.7042
vn 0.3499 0.8690 0.3499
vn 0.7025 -0.1142 0.7025
vn -0.0000 0.5215 0.8533
vn -0.0000 0.0899 0.9960
vn -0.0000 0.8690 0.4949
vn -0.0000 -0.1142 0.9935
vn -0.6033 0.5215 0.6033
vn -0.7042 0.0899 0.7042
vn -0.3499 0.8690 0.3499
vn -0.7025 -0.1142 0.7025
vn -0.4949 0.8690 -0.0000
vn -0.9960 0.0899 -0.0000
vn -0.9935 -0.1142 -0.0000
vn -0.8533 0.5215 -0.0000
vn -0.7042 0.0899 -0.7042
vn -0.7025 -0.1142 -0.7025
vn -0.3499 0.8690 -0.3499
vn -0.6033 0.5215 -0.6033
vt 0.750000 0.746877
vt 0.750000 0.499333
vt 0.750000 0.251790
vt 0.750000 0.004246
vt 0.625000 0.746877
vt 0.625000 0.499333
vt 0.625000 0.251790
vt 0.625000 0.004246
vt 0.500000 0.746877
vt 0.500000 0.499333
vt 0.500000 0.251790
vt 0.500000 0.004246
vt 0.375000 0.746877
vt 0.375000 0.499333
vt 0.375000 0.251790
vt 0.375000 0.004246
vt 0.250000 0.746877
vt 0.250000 0.499333
vt 0.250000 0.251790
vt 0.250000 0.004246
vt 0.687500 0.994421
vt 0.562500 0.994421
vt 0.437500 0.994421
vt 0.312500 0.994421
vt 0.187500 0.994421
vt 0.062500 0.994421
vt 0.937500 0.994421
vt 0.812500 0.994421
vt 0.125000 0.746877
vt 0.125000 0.499333
vt 0.125000 0.251790
vt 0.125000 0.004246
vt 0.000000 0.746877
vt 1.000000 0.746877
vt 0.000000 0.499333
vt 1.000000 0.499333
vt 0.000000 0.251790
vt 1.000000 0.251790
vt 0.000000 0.004246
vt 1.000000 0.004246
vt 0.875000 0.746877
vt 0.875000 0.499334
vt 0.875000 0.251790
vt 0.875000 0.004246
s 1
f 4/4/1 3/3/2 7/7/3 8/8/4
f 2/2/5 1/1/6 5/5/7 6/6/8
f 3/3/2 2/2/5 6/6/8 7/7/3
f 1/1/6 21/21/9 5/5/7
f 7/7/3 6/6/8 10/10/10 11/11/11
f 5/5/7 21/22/9 9/9/12
f 8/8/4 7/7/3 11/11/11 12/12/13
f 6/6/8 5/5/7 9/9/12 10/10/10
f 11/11/11 10/10/10 14/14/14 15/15/15
f 9/9/12 21/23/9 13/13/16
f 12/12/13 11/11/11 15/15/15 16/16/17
f 10/10/10 9/9/12 13/13/16 14/14/14
f 15/15/15 14/14/14 18/18/18 19/19/19
f 13/13/16 21/24/9 17/17/20
f 16/16/17 15/15/15 19/19/19 20/20/21
f 14/14/14 13/13/16 17/17/20 18/18/18
f 19/19/19 18/18/18 23/30/22 24/31/23
f 17/17/20 21/25/9 22/29/24
f 20/20/21 19/19/19 24/31/23 25/32/25
f 18/18/18 17/17/20 22/29/24 23/30/22
f 22/29/24 21/26/9 26/33/26
f 25/32/25 24/31/23 28/37/27 29/39/28
f 23/30/22 22/29/24 26/33/26 27/35/29
f 24/31/23 23/30/22 27/35/29 28/37/27
f 29/40/28 28/38/27 32/43/30 33/44/31
f 27/36/29 26/34/26 30/41/32 31/42/33
f 28/38/27 27/36/29 31/42/33 32/43/30
f 26/34/26 21/27/9 30/41/32
f 33/44/31 32/43/30 3/3/2 4/4/1
f 31/42/33 30/41/32 1/1/6 2/2/5
f 32/43/30 31/42/33 2/2/5 3/3/2
f 30/41/32 21/28/9 1/1/6
